<svg xmlns="http://www.w3.org/2000/svg" viewBox="0 0 24 24" fill="#4F46E5">
  <path d="M18.36 5.64a4.5 4.5 0 0 1 0 6.36l-2.02 2.02a4.5 4.5 0 0 1-6.36 0l-.7-.7 1.41-1.42.7.7a2.5 2.5 0 0 0 3.54 0l2.02-2.02a2.5 2.5 0 0 0 0-3.54l-1.06-1.06 1.41-1.41 1.06 1.06zM7.76 16.24a4.5 4.5 0 0 1-6.36-6.36l2.02-2.02a4.5 4.5 0 0 1 6.36 0l.7.7-1.41 1.42-.7-.7a2.5 2.5 0 0 0-3.54 0L2.81 11.3a2.5 2.5 0 0 0 0 3.54l1.06 1.06-1.41 1.41-1.06-1.06z"/>
  <path d="M15.54 8.46a1 1 0 0 1 0 1.42l-5.66 5.66a1 1 0 0 1-1.42-1.42l5.66-5.66a1 1 0 0 1 1.42 0z"/>
</svg>
